<?xml version="1.0" standalone="no"?>
<!DOCTYPE svg PUBLIC "-//W3C//DTD SVG 20010904//EN"
 "http://www.w3.org/TR/2001/REC-SVG-20010904/DTD/svg10.dtd">
<svg version="1.0" xmlns="http://www.w3.org/2000/svg"
 width="400.000000pt" height="400.000000pt" viewBox="0 0 400.000000 400.000000"
 preserveAspectRatio="xMidYMid meet">
<metadata>
Created by potrace 1.14, written by Peter Selinger 2001-2017
</metadata>
<g transform="translate(0.000000,400.000000) scale(0.100000,-0.100000)"
fill="#000000" stroke="none">
<path d="M416 3984 c-136 -33 -275 -143 -335 -265 -166 -338 54 -725 424 -747
155 -9 294 45 400 153 197 203 197 520 0 719 -63 64 -148 116 -225 136 -67 19
-197 21 -264 4z"/>
<path d="M3346 3955 c-97 -28 -176 -76 -240 -147 -302 -332 -72 -859 375 -860
388 -2 639 412 457 754 -114 214 -361 320 -592 253z"/>
<path d="M1820 3953 c-181 -18 -413 -86 -605 -177 -131 -62 -122 -47 -91 -161
47 -167 -15 -426 -129 -547 -77 -81 -153 -131 -256 -169 -55 -21 -82 -24 -194
-24 -109 0 -139 4 -187 22 l-57 21 -39 -71 c-203 -372 -268 -757 -196 -1157
29 -160 74 -291 170 -499 39 -84 46 -93 66 -88 13 3 50 13 83 22 187 50 433
-14 569 -148 165 -162 221 -403 146 -621 l-18 -53 62 -36 c88 -50 247 -120
342 -150 169 -53 319 -75 514 -75 297 1 495 49 816 198 l91 42 -19 61 c-63
202 -8 458 131 602 85 89 200 152 331 181 28 7 175 6 209 0 19 -4 58 -15 88
-25 l53 -18 19 31 c94 152 195 416 216 561 3 22 8 46 10 53 18 52 25 349 12
477 -11 106 -51 269 -92 380 -33 87 -128 302 -139 313 -3 2 -44 -6 -92 -18
-109 -28 -196 -28 -299 -1 -158 40 -223 75 -308 165 -147 155 -198 395 -127
600 l19 55 -83 45 c-164 90 -325 149 -506 186 -82 17 -146 23 -290 24 -102 2
-201 1 -220 -1z m218 -644 c106 -17 108 -18 126 -101 90 -403 340 -737 691
-924 144 -76 346 -141 444 -143 l34 -1 -6 -87 c-7 -96 -11 -119 -27 -169 -10
-30 -16 -34 -83 -49 -252 -56 -475 -172 -655 -340 -65 -60 -107 -109 -212
-247 -37 -48 -127 -237 -154 -321 -27 -86 -30 -95 -48 -191 l-12 -59 -86 7
c-75 5 -184 27 -196 39 -3 2 -6 13 -8 23 -48 236 -127 417 -257 589 -211 280
-500 456 -860 525 l-57 11 4 62 c5 81 32 203 47 214 7 5 41 15 77 22 146 28
321 103 470 201 114 74 291 249 365 360 103 155 186 352 215 512 7 35 13 68
15 75 4 13 60 10 173 -8z"/>
<path d="M392 1039 c-85 -21 -119 -38 -194 -95 -195 -151 -253 -426 -135 -648
141 -265 487 -350 741 -181 245 162 301 518 117 745 -20 24 -49 57 -66 72 -39
35 -148 93 -205 108 -72 19 -180 19 -258 -1z"/>
<path d="M3301 1005 c-183 -67 -304 -205 -347 -399 -6 -24 -6 -139 -1 -176 7
-50 24 -97 59 -163 61 -119 193 -220 329 -251 238 -56 478 59 583 279 141 295
-19 638 -335 720 -84 22 -211 17 -288 -10z"/>
</g>
</svg>
